<?xml version="1.0" encoding="utf-8"?><!-- Uploaded to: SVG Repo, www.svgrepo.com, Generator: SVG Repo Mixer Tools -->
<svg version="1.1" id="Uploaded to svgrepo.com" xmlns="http://www.w3.org/2000/svg" xmlns:xlink="http://www.w3.org/1999/xlink" 
	 width="800px" height="800px" viewBox="0 0 32 32" xml:space="preserve">
<style type="text/css">
	.feather_een{fill:#0B1719;}
</style>
<path class="feather_een" d="M28,12c0-6.627-5.373-12-12-12S4,5.373,4,12c0,4.841,2.872,9.002,7,10.899V29c0,1.657,1.343,3,3,3h4
	c1.657,0,3-1.343,3-3v-6.101C25.128,21.002,28,16.841,28,12z M19.99,1.76C19.073,2.504,17.62,3,16,3s-3.073-0.496-3.99-1.24
	C13.249,1.276,14.592,1,16,1S18.751,1.276,19.99,1.76z M15,26v-3h2v3H15z M14.451,22C13.116,20.301,12,16.576,12,12
	c0-3.441,0.636-6.386,1.516-8.367C14.274,3.864,15.111,4,16,4s1.726-0.136,2.484-0.367C19.364,5.614,20,8.559,20,12
	c0,4.576-1.116,8.301-2.451,10H14.451z M5,12c0-4.272,2.453-7.974,6.02-9.795c0.419,0.42,0.94,0.791,1.559,1.079
	C11.611,5.471,11,8.557,11,12c0,4.19,0.902,7.854,2.257,10h-1.833C7.515,20.209,5,16.306,5,12z M12,23h2v3h-2V23z M20,29
	c0,1.103-0.897,2-2,2h-4c-1.103,0-2-0.897-2-2v-2h8V29z M18,26v-3h2v3H18z M20.576,22h-1.833C20.098,19.854,21,16.19,21,12
	c0-3.443-0.611-6.529-1.579-8.716c0.62-0.288,1.141-0.659,1.559-1.079C24.547,4.026,27,7.728,27,12
	C27,16.306,24.485,20.209,20.576,22z"/>
</svg>