<?xml version="1.0" encoding="iso-8859-1"?>
<!-- Uploaded to: SVG Repo, www.svgrepo.com, Generator: SVG Repo Mixer Tools -->
<svg fill="#000000" height="800px" width="800px" version="1.1" id="Layer_1" xmlns="http://www.w3.org/2000/svg" xmlns:xlink="http://www.w3.org/1999/xlink" 
	 viewBox="0 0 463.379 463.379" xml:space="preserve">
<g>
	<g>
		<g>
			<path d="M387.008,110.853H352.67V10c0-5.523-4.477-10-10-10H209.656c-5.523,0-10,4.477-10,10v100.853h-34.338
				c-5.523,0-10,4.477-10,10v332.526c0,5.523,4.477,10,10,10h221.689c5.523,0,10-4.477,10-10V120.853
				C397.008,115.33,392.531,110.853,387.008,110.853z M219.656,64.29c0.36,0.04,0.725,0.063,1.096,0.063h22.162
				c5.523,0,10-4.477,10-10c0-5.523-4.477-10-10-10h-22.162c-0.371,0-0.735,0.023-1.096,0.063V20H332.67v90.853H219.656V64.29z
				 M377.008,443.379h-201.69V130.852h34.338H342.67h34.338V443.379z"/>
			<path d="M276.17,213.724c-41.992,0-76.155,34.163-76.155,76.155c0,42,34.163,76.17,76.155,76.17s76.155-34.17,76.155-76.17
				C352.326,247.887,318.163,213.724,276.17,213.724z M276.17,346.048c-30.964,0-56.155-25.198-56.155-56.17
				c0-30.964,25.191-56.155,56.155-56.155s56.155,25.191,56.155,56.155C332.326,320.851,307.135,346.048,276.17,346.048z"/>
			<path d="M276.17,272.002c-9.849,0-17.861,8.02-17.861,17.876c0,9.865,8.013,17.891,17.861,17.891
				c9.849,0,17.861-8.026,17.861-17.891C294.032,280.022,286.019,272.002,276.17,272.002z"/>
			<path d="M165.053,65.719c2.63,0,5.21-1.07,7.07-2.93s2.93-4.44,2.93-7.07s-1.07-5.21-2.93-7.07s-4.44-2.93-7.07-2.93
				s-5.21,1.07-7.07,2.93s-2.93,4.43-2.93,7.07c0,2.63,1.07,5.21,2.93,7.07S162.423,65.719,165.053,65.719z"/>
			<path d="M120.712,45.719c-2.63,0-5.21,1.07-7.07,2.93c-1.86,1.86-2.93,4.44-2.93,7.07s1.07,5.21,2.93,7.07
				c1.86,1.86,4.44,2.93,7.07,2.93c2.64,0,5.21-1.07,7.07-2.93c1.87-1.86,2.93-4.44,2.93-7.07s-1.06-5.21-2.93-7.07
				C125.923,46.789,123.352,45.719,120.712,45.719z"/>
			<path d="M120.712,1.379c-2.63,0-5.21,1.07-7.07,2.93c-1.86,1.86-2.93,4.44-2.93,7.07c0,2.63,1.07,5.21,2.93,7.07
				c1.86,1.86,4.44,2.93,7.07,2.93c2.64,0,5.21-1.07,7.07-2.93c1.87-1.86,2.93-4.44,2.93-7.07c0-2.63-1.06-5.21-2.93-7.07
				C125.923,2.449,123.342,1.379,120.712,1.379z"/>
			<path d="M120.712,90.059c-2.63,0-5.21,1.06-7.07,2.92c-1.86,1.87-2.93,4.44-2.93,7.08c0,2.63,1.07,5.2,2.93,7.07
				c1.86,1.86,4.44,2.93,7.07,2.93c2.63,0,5.21-1.07,7.07-2.93c1.87-1.87,2.93-4.44,2.93-7.07c0-2.64-1.06-5.21-2.93-7.08
				C125.923,91.119,123.342,90.059,120.712,90.059z"/>
			<path d="M76.383,65.719c2.63,0,5.2-1.07,7.07-2.93c1.86-1.86,2.92-4.44,2.92-7.07s-1.06-5.21-2.92-7.07
				c-1.87-1.86-4.44-2.93-7.07-2.93c-2.64,0-5.22,1.07-7.08,2.93s-2.93,4.44-2.93,7.07s1.07,5.21,2.93,7.07
				C71.173,64.649,73.743,65.719,76.383,65.719z"/>
			<path d="M76.383,90.059c-2.64,0-5.21,1.06-7.08,2.92c-1.86,1.87-2.92,4.44-2.92,7.08c0,2.63,1.06,5.2,2.92,7.07
				c1.87,1.86,4.44,2.93,7.08,2.93c2.63,0,5.21-1.07,7.07-2.93c1.86-1.87,2.93-4.44,2.93-7.07c0-2.64-1.07-5.21-2.93-7.08
				C81.592,91.119,79.013,90.059,76.383,90.059z"/>
			<path d="M76.383,21.379c2.63,0,5.21-1.07,7.07-2.93c1.86-1.86,2.92-4.44,2.92-7.07c0-2.63-1.06-5.21-2.92-7.07
				c-1.86-1.86-4.44-2.93-7.07-2.93c-2.64,0-5.21,1.07-7.08,2.93c-1.86,1.86-2.92,4.44-2.92,7.07c0,2.63,1.06,5.21,2.92,7.07
				C71.162,20.309,73.743,21.379,76.383,21.379z"/>
		</g>
	</g>
</g>
</svg>