<?xml version="1.0" encoding="iso-8859-1"?>
<!-- Uploaded to: SVG Repo, www.svgrepo.com, Generator: SVG Repo Mixer Tools -->
<svg fill="#000000" height="800px" width="800px" version="1.1" id="Layer_1" xmlns="http://www.w3.org/2000/svg" xmlns:xlink="http://www.w3.org/1999/xlink" 
	 viewBox="0 0 512.004 512.004" xml:space="preserve">
<g>
	<g>
		<path d="M509.502,210.836c3.337-3.337,3.337-8.73,0-12.066c-3.336-3.337-8.73-3.337-12.066,0l-19.567,19.567v-5
			c0-4.719-3.814-8.533-8.533-8.533h-81.801L509.502,82.836c3.337-3.337,3.337-8.73,0-12.066c-3.336-3.336-8.73-3.336-12.066,0
			L363.403,204.803h-98.867v-13.534l176.7-176.7c3.337-3.337,3.337-8.73,0-12.066c-3.337-3.336-8.73-3.336-12.066,0L264.535,167.137
			V63.269l48.7-48.7c3.337-3.337,3.337-8.73,0-12.066c-3.337-3.336-8.73-3.336-12.066,0l-41.242,41.242
			c-1.186-0.631-2.483-1.075-3.925-1.075H148.602l28.1-28.1c3.337-3.337,3.337-8.73,0-12.066c-3.336-3.336-8.73-3.336-12.066,0
			L124.469,42.67H42.669c-4.719,0-8.533,3.814-8.533,8.533v81.801L2.502,164.637c-3.336,3.337-3.336,8.73,0,12.066
			c1.664,1.664,3.849,2.5,6.033,2.5c2.185,0,4.369-0.836,6.033-2.5l19.567-19.567v112.401L2.502,301.17
			c-3.336,3.337-3.336,8.73,0,12.066c1.664,1.664,3.849,2.5,6.033,2.5c2.185,0,4.369-0.836,6.033-2.5l19.567-19.567v103.868
			L2.502,429.17c-3.336,3.336-3.336,8.73,0,12.066c1.664,1.664,3.849,2.5,6.033,2.5c2.185,0,4.369-0.836,6.033-2.5l19.567-19.567
			v47.667c0,4.719,3.814,8.533,8.533,8.533h47.667l-19.567,19.567c-3.337,3.337-3.337,8.73,0,12.066
			c1.664,1.664,3.849,2.5,6.033,2.5c2.185,0,4.369-0.836,6.033-2.5l31.633-31.633h103.868l-19.567,19.567
			c-3.337,3.337-3.337,8.73,0,12.066c1.664,1.664,3.849,2.5,6.033,2.5c2.185,0,4.369-0.836,6.033-2.5l31.633-31.633h112.401
			l-19.567,19.567c-3.337,3.337-3.337,8.73,0,12.066c1.664,1.664,3.849,2.5,6.033,2.5c2.185,0,4.369-0.836,6.033-2.5l31.633-31.633
			h90.334c4.719,0,8.533-3.814,8.533-8.533v-90.334l31.633-31.633c3.337-3.336,3.337-8.73,0-12.066
			c-3.336-3.337-8.73-3.337-12.066,0l-19.567,19.567V242.469L509.502,210.836z M460.802,460.803h-409.6V59.737h196.267v153.6
			c0,4.719,3.814,8.533,8.533,8.533h204.8V460.803z"/>
	</g>
</g>
</svg>